# Blender v2.92.0 OBJ File: ''
# www.blender.org
mtllib cyl2.mtl
o Cylinder_(1)
v -0.500000 0.000000 1.000000
v 0.000000 0.000000 1.000000
v -0.482963 0.129410 1.000000
v -0.433013 0.250000 1.000000
v -0.353553 0.353553 1.000000
v -0.250000 0.433013 1.000000
v -0.129410 0.482963 1.000000
v 0.000000 0.500000 1.000000
v 0.129410 0.482963 1.000000
v 0.250000 0.433013 1.000000
v 0.353553 0.353553 1.000000
v 0.433013 0.250000 1.000000
v 0.482963 0.129410 1.000000
v 0.500000 -0.000000 1.000000
v 0.482963 -0.129410 1.000000
v 0.433013 -0.250000 1.000000
v 0.353553 -0.353553 1.000000
v 0.250000 -0.433013 1.000000
v 0.129409 -0.482963 1.000000
v 0.000000 -0.500000 1.000000
v -0.129409 -0.482963 1.000000
v -0.250000 -0.433013 1.000000
v -0.353553 -0.353553 1.000000
v -0.433013 -0.250000 1.000000
v -0.482963 -0.129410 1.000000
v -0.482963 0.129410 -1.000000
v 0.000000 0.000000 -1.000000
v -0.500000 0.000000 -1.000000
v -0.433013 0.250000 -1.000000
v -0.353553 0.353553 -1.000000
v -0.250000 0.433013 -1.000000
v -0.129410 0.482963 -1.000000
v 0.000000 0.500000 -1.000000
v 0.129410 0.482963 -1.000000
v 0.250000 0.433013 -1.000000
v 0.353553 0.353553 -1.000000
v 0.433013 0.250000 -1.000000
v 0.482963 0.129410 -1.000000
v 0.500000 -0.000000 -1.000000
v 0.482963 -0.129410 -1.000000
v 0.433013 -0.250000 -1.000000
v 0.353553 -0.353553 -1.000000
v 0.250000 -0.433013 -1.000000
v 0.129409 -0.482963 -1.000000
v 0.000000 -0.500000 -1.000000
v -0.129409 -0.482963 -1.000000
v -0.250000 -0.433013 -1.000000
v -0.353553 -0.353553 -1.000000
v -0.433013 -0.250000 -1.000000
v -0.482963 -0.129410 -1.000000
vt 0.000000 0.000000
vt 0.500000 0.000000
vt 0.017037 0.129410
vt 0.066987 0.250000
vt 0.146447 0.353553
vt 0.250000 0.433013
vt 0.370590 0.482963
vt 0.500000 0.500000
vt 0.629410 0.482963
vt 0.750000 0.433013
vt 0.853553 0.353553
vt 0.933013 0.250000
vt 0.982963 0.129410
vt 1.000000 -0.000000
vt 0.982963 -0.129410
vt 0.933013 -0.250000
vt 0.853553 -0.353553
vt 0.750000 -0.433013
vt 0.629409 -0.482963
vt 0.500000 -0.500000
vt 0.370591 -0.482963
vt 0.250000 -0.433013
vt 0.146447 -0.353553
vt 0.066987 -0.250000
vt 0.017037 -0.129410
vt -0.017037 0.129410
vt -0.500000 0.000000
vt 0.000000 0.000000
vt -0.066987 0.250000
vt -0.146447 0.353553
vt -0.250000 0.433013
vt -0.370590 0.482963
vt -0.500000 0.500000
vt -0.629410 0.482963
vt -0.750000 0.433013
vt -0.853553 0.353553
vt -0.933013 0.250000
vt -0.982963 0.129410
vt -1.000000 -0.000000
vt -0.982963 -0.129410
vt -0.933013 -0.250000
vt -0.853553 -0.353553
vt -0.750000 -0.433013
vt -0.629409 -0.482963
vt -0.500000 -0.500000
vt -0.370591 -0.482963
vt -0.250000 -0.433013
vt -0.146447 -0.353553
vt -0.066987 -0.250000
vt -0.017037 -0.129410
vt 0.130526 2.000000
vt 0.000000 2.000000
vt 0.130526 0.000000
vt 0.256605 2.000000
vt 0.126079 2.000000
vt 0.126079 0.000000
vt 0.256605 0.000000
vt 0.369644 2.000000
vt 0.239118 2.000000
vt 0.239118 0.000000
vt 0.369644 0.000000
vt 0.461940 2.000000
vt 0.331414 2.000000
vt 0.331414 0.000000
vt 0.461940 0.000000
vt 0.527203 2.000000
vt 0.396677 2.000000
vt 0.396677 0.000000
vt 0.527203 0.000000
vt 0.560986 2.000000
vt 0.430459 2.000000
vt 0.430459 0.000000
vt 0.560986 0.000000
vt 0.560986 2.000000
vt 0.430459 2.000000
vt 0.430459 0.000000
vt 0.560986 0.000000
vt 0.527203 2.000000
vt 0.396677 2.000000
vt 0.396677 0.000000
vt 0.527203 0.000000
vt 0.461940 2.000000
vt 0.331414 2.000000
vt 0.331414 0.000000
vt 0.461940 0.000000
vt 0.369644 2.000000
vt 0.239118 2.000000
vt 0.239118 0.000000
vt 0.369644 0.000000
vt 0.256605 2.000000
vt 0.126079 2.000000
vt 0.126079 0.000000
vt 0.256605 0.000000
vt 0.130526 2.000000
vt 0.000000 2.000000
vt 0.000000 0.000000
vt 0.130526 0.000000
vt 0.000000 2.000000
vt -0.130526 2.000000
vt -0.130526 0.000000
vt 0.000000 0.000000
vt -0.126079 2.000000
vt -0.256605 2.000000
vt -0.256605 0.000000
vt -0.126079 0.000000
vt -0.239118 2.000000
vt -0.369644 2.000000
vt -0.369644 0.000000
vt -0.239118 0.000000
vt -0.331414 2.000000
vt -0.461940 2.000000
vt -0.461940 0.000000
vt -0.331414 0.000000
vt -0.396677 2.000000
vt -0.527203 2.000000
vt -0.527203 0.000000
vt -0.396677 0.000000
vt -0.430459 2.000000
vt -0.560986 2.000000
vt -0.560986 0.000000
vt -0.430459 0.000000
vt -0.430459 2.000000
vt -0.560986 2.000000
vt -0.560986 0.000000
vt -0.430459 0.000000
vt -0.396677 2.000000
vt -0.527203 2.000000
vt -0.527203 0.000000
vt -0.396677 0.000000
vt -0.331414 2.000000
vt -0.461940 2.000000
vt -0.461940 0.000000
vt -0.331414 0.000000
vt -0.239118 2.000000
vt -0.369644 2.000000
vt -0.369644 0.000000
vt -0.239118 0.000000
vt -0.126079 2.000000
vt -0.256605 2.000000
vt -0.256605 0.000000
vt -0.126079 0.000000
vt -0.130526 2.000000
vt -0.130526 0.000000
vn 0.0000 0.0000 1.0000
vn 0.0000 0.0000 -1.0000
vn -0.9659 0.2588 0.0000
vn -1.0000 0.0000 0.0000
vn -0.8660 0.5000 0.0000
vn -0.7071 0.7071 0.0000
vn -0.5000 0.8660 0.0000
vn -0.2588 0.9659 0.0000
vn -0.0000 1.0000 0.0000
vn 0.2588 0.9659 0.0000
vn 0.5000 0.8660 0.0000
vn 0.7071 0.7071 0.0000
vn 0.8660 0.5000 0.0000
vn 0.9659 0.2588 0.0000
vn 1.0000 -0.0000 0.0000
vn 0.9659 -0.2588 0.0000
vn 0.8660 -0.5000 0.0000
vn 0.7071 -0.7071 0.0000
vn 0.5000 -0.8660 0.0000
vn 0.2588 -0.9659 0.0000
vn 0.0000 -1.0000 0.0000
vn -0.2588 -0.9659 0.0000
vn -0.5000 -0.8660 0.0000
vn -0.7071 -0.7071 0.0000
vn -0.8660 -0.5000 0.0000
vn -0.9659 -0.2588 0.0000
usemtl Lit
s 1
f 1/1/1 2/2/1 3/3/1
f 3/3/1 2/2/1 4/4/1
f 4/4/1 2/2/1 5/5/1
f 5/5/1 2/2/1 6/6/1
f 6/6/1 2/2/1 7/7/1
f 7/7/1 2/2/1 8/8/1
f 8/8/1 2/2/1 9/9/1
f 9/9/1 2/2/1 10/10/1
f 10/10/1 2/2/1 11/11/1
f 11/11/1 2/2/1 12/12/1
f 12/12/1 2/2/1 13/13/1
f 13/13/1 2/2/1 14/14/1
f 14/14/1 2/2/1 15/15/1
f 15/15/1 2/2/1 16/16/1
f 16/16/1 2/2/1 17/17/1
f 17/17/1 2/2/1 18/18/1
f 18/18/1 2/2/1 19/19/1
f 19/19/1 2/2/1 20/20/1
f 20/20/1 2/2/1 21/21/1
f 21/21/1 2/2/1 22/22/1
f 22/22/1 2/2/1 23/23/1
f 23/23/1 2/2/1 24/24/1
f 24/24/1 2/2/1 25/25/1
f 25/25/1 2/2/1 1/1/1
f 26/26/2 27/27/2 28/28/2
f 29/29/2 27/27/2 26/26/2
f 30/30/2 27/27/2 29/29/2
f 31/31/2 27/27/2 30/30/2
f 32/32/2 27/27/2 31/31/2
f 33/33/2 27/27/2 32/32/2
f 34/34/2 27/27/2 33/33/2
f 35/35/2 27/27/2 34/34/2
f 36/36/2 27/27/2 35/35/2
f 37/37/2 27/27/2 36/36/2
f 38/38/2 27/27/2 37/37/2
f 39/39/2 27/27/2 38/38/2
f 40/40/2 27/27/2 39/39/2
f 41/41/2 27/27/2 40/40/2
f 42/42/2 27/27/2 41/41/2
f 43/43/2 27/27/2 42/42/2
f 44/44/2 27/27/2 43/43/2
f 45/45/2 27/27/2 44/44/2
f 46/46/2 27/27/2 45/45/2
f 47/47/2 27/27/2 46/46/2
f 48/48/2 27/27/2 47/47/2
f 49/49/2 27/27/2 48/48/2
f 50/50/2 27/27/2 49/49/2
f 28/28/2 27/27/2 50/50/2
f 26/51/3 28/52/4 1/1/4
f 1/1/4 3/53/3 26/51/3
f 29/54/5 26/55/3 3/56/3
f 3/56/3 4/57/5 29/54/5
f 30/58/6 29/59/5 4/60/5
f 4/60/5 5/61/6 30/58/6
f 31/62/7 30/63/6 5/64/6
f 5/64/6 6/65/7 31/62/7
f 32/66/8 31/67/7 6/68/7
f 6/68/7 7/69/8 32/66/8
f 33/70/9 32/71/8 7/72/8
f 7/72/8 8/73/9 33/70/9
f 34/74/10 33/75/9 8/76/9
f 8/76/9 9/77/10 34/74/10
f 35/78/11 34/79/10 9/80/10
f 9/80/10 10/81/11 35/78/11
f 36/82/12 35/83/11 10/84/11
f 10/84/11 11/85/12 36/82/12
f 37/86/13 36/87/12 11/88/12
f 11/88/12 12/89/13 37/86/13
f 38/90/14 37/91/13 12/92/13
f 12/92/13 13/93/14 38/90/14
f 39/94/15 38/95/14 13/96/14
f 13/96/14 14/97/15 39/94/15
f 40/98/16 39/99/15 14/100/15
f 14/100/15 15/101/16 40/98/16
f 41/102/17 40/103/16 15/104/16
f 15/104/16 16/105/17 41/102/17
f 42/106/18 41/107/17 16/108/17
f 16/108/17 17/109/18 42/106/18
f 43/110/19 42/111/18 17/112/18
f 17/112/18 18/113/19 43/110/19
f 44/114/20 43/115/19 18/116/19
f 18/116/19 19/117/20 44/114/20
f 45/118/21 44/119/20 19/120/20
f 19/120/20 20/121/21 45/118/21
f 46/122/22 45/123/21 20/124/21
f 20/124/21 21/125/22 46/122/22
f 47/126/23 46/127/22 21/128/22
f 21/128/22 22/129/23 47/126/23
f 48/130/24 47/131/23 22/132/23
f 22/132/23 23/133/24 48/130/24
f 49/134/25 48/135/24 23/136/24
f 23/136/24 24/137/25 49/134/25
f 50/138/26 49/139/25 24/140/25
f 24/140/25 25/141/26 50/138/26
f 28/52/4 50/142/26 25/143/26
f 25/143/26 1/1/4 28/52/4
